<svg width="115" height="115" viewBox="0 0 115 115" fill="none" xmlns="http://www.w3.org/2000/svg">
<circle cx="1.81962" cy="1.81962" r="1.81962" fill="#3C4510" fill-opacity="0.6"/>
<circle cx="1.81962" cy="38.94" r="1.81962" fill="#3C4510" fill-opacity="0.6"/>
<circle cx="1.81962" cy="88.4336" r="1.81962" fill="#3C4510" fill-opacity="0.6"/>
<circle cx="1.81962" cy="14.1932" r="1.81962" fill="#3C4510" fill-opacity="0.6"/>
<circle cx="1.81962" cy="51.3134" r="1.81962" fill="#3C4510" fill-opacity="0.6"/>
<circle cx="1.81962" cy="100.807" r="1.81962" fill="#3C4510" fill-opacity="0.6"/>
<circle cx="1.81962" cy="26.5663" r="1.81962" fill="#3C4510" fill-opacity="0.6"/>
<circle cx="1.81962" cy="76.0601" r="1.81962" fill="#3C4510" fill-opacity="0.6"/>
<circle cx="1.81962" cy="63.6866" r="1.81962" fill="#3C4510" fill-opacity="0.6"/>
<circle cx="1.81962" cy="113.18" r="1.81962" fill="#3C4510" fill-opacity="0.6"/>
<circle cx="38.9397" cy="100.807" r="1.81962" fill="#3C4510" fill-opacity="0.6"/>
<circle cx="38.9397" cy="113.18" r="1.81962" fill="#3C4510" fill-opacity="0.6"/>
<circle cx="76.0599" cy="100.807" r="1.81962" fill="#3C4510" fill-opacity="0.6"/>
<circle cx="76.0599" cy="113.18" r="1.81962" fill="#3C4510" fill-opacity="0.6"/>
<circle cx="14.1932" cy="1.81962" r="1.81962" fill="#3C4510" fill-opacity="0.6"/>
<circle cx="14.1932" cy="38.94" r="1.81962" fill="#3C4510" fill-opacity="0.6"/>
<circle cx="14.1932" cy="88.4336" r="1.81962" fill="#3C4510" fill-opacity="0.6"/>
<circle cx="14.1932" cy="14.1932" r="1.81962" fill="#3C4510" fill-opacity="0.6"/>
<circle cx="14.1932" cy="51.3134" r="1.81962" fill="#3C4510" fill-opacity="0.6"/>
<circle cx="14.1932" cy="100.807" r="1.81962" fill="#3C4510" fill-opacity="0.6"/>
<circle cx="14.1932" cy="26.5663" r="1.81962" fill="#3C4510" fill-opacity="0.6"/>
<circle cx="14.1932" cy="76.0601" r="1.81962" fill="#3C4510" fill-opacity="0.6"/>
<circle cx="14.1932" cy="63.6866" r="1.81962" fill="#3C4510" fill-opacity="0.6"/>
<circle cx="14.1932" cy="113.18" r="1.81962" fill="#3C4510" fill-opacity="0.6"/>
<circle cx="51.3133" cy="100.807" r="1.81962" fill="#3C4510" fill-opacity="0.6"/>
<circle cx="51.3133" cy="113.18" r="1.81962" fill="#3C4510" fill-opacity="0.6"/>
<circle cx="88.4334" cy="100.807" r="1.81962" fill="#3C4510" fill-opacity="0.6"/>
<circle cx="88.4334" cy="113.18" r="1.81962" fill="#3C4510" fill-opacity="0.6"/>
<circle cx="26.5664" cy="100.807" r="1.81962" fill="#3C4510" fill-opacity="0.6"/>
<circle cx="26.5664" cy="113.18" r="1.81962" fill="#3C4510" fill-opacity="0.6"/>
<circle cx="63.6868" cy="100.807" r="1.81962" fill="#3C4510" fill-opacity="0.6"/>
<circle cx="63.6868" cy="113.18" r="1.81962" fill="#3C4510" fill-opacity="0.6"/>
<circle cx="100.807" cy="100.807" r="1.81962" fill="#3C4510" fill-opacity="0.6"/>
<circle cx="100.807" cy="113.18" r="1.81962" fill="#3C4510" fill-opacity="0.6"/>
<circle cx="113.18" cy="100.807" r="1.81962" fill="#3C4510" fill-opacity="0.6"/>
<circle cx="113.18" cy="113.18" r="1.81962" fill="#3C4510" fill-opacity="0.6"/>
</svg>
