<svg width="115" height="115" fill="none" xmlns="http://www.w3.org/2000/svg"><circle cx="1.82" cy="1.82" r="1.82" fill="#3C4510" fill-opacity=".6"/><circle cx="1.82" cy="38.94" r="1.82" fill="#3C4510" fill-opacity=".6"/><circle cx="1.82" cy="88.434" r="1.82" fill="#3C4510" fill-opacity=".6"/><circle cx="1.82" cy="14.193" r="1.82" fill="#3C4510" fill-opacity=".6"/><circle cx="1.82" cy="51.313" r="1.82" fill="#3C4510" fill-opacity=".6"/><circle cx="1.82" cy="100.807" r="1.82" fill="#3C4510" fill-opacity=".6"/><circle cx="1.82" cy="26.566" r="1.82" fill="#3C4510" fill-opacity=".6"/><circle cx="1.82" cy="76.06" r="1.82" fill="#3C4510" fill-opacity=".6"/><circle cx="1.82" cy="63.687" r="1.82" fill="#3C4510" fill-opacity=".6"/><circle cx="1.82" cy="113.18" r="1.82" fill="#3C4510" fill-opacity=".6"/><circle cx="38.94" cy="100.807" r="1.82" fill="#3C4510" fill-opacity=".6"/><circle cx="38.94" cy="113.18" r="1.82" fill="#3C4510" fill-opacity=".6"/><circle cx="76.06" cy="100.807" r="1.82" fill="#3C4510" fill-opacity=".6"/><circle cx="76.06" cy="113.18" r="1.82" fill="#3C4510" fill-opacity=".6"/><circle cx="14.193" cy="1.82" r="1.82" fill="#3C4510" fill-opacity=".6"/><circle cx="14.193" cy="38.94" r="1.82" fill="#3C4510" fill-opacity=".6"/><circle cx="14.193" cy="88.434" r="1.82" fill="#3C4510" fill-opacity=".6"/><circle cx="14.193" cy="14.193" r="1.82" fill="#3C4510" fill-opacity=".6"/><circle cx="14.193" cy="51.313" r="1.82" fill="#3C4510" fill-opacity=".6"/><circle cx="14.193" cy="100.807" r="1.82" fill="#3C4510" fill-opacity=".6"/><circle cx="14.193" cy="26.566" r="1.82" fill="#3C4510" fill-opacity=".6"/><circle cx="14.193" cy="76.06" r="1.82" fill="#3C4510" fill-opacity=".6"/><circle cx="14.193" cy="63.687" r="1.82" fill="#3C4510" fill-opacity=".6"/><circle cx="14.193" cy="113.18" r="1.82" fill="#3C4510" fill-opacity=".6"/><circle cx="51.313" cy="100.807" r="1.82" fill="#3C4510" fill-opacity=".6"/><circle cx="51.313" cy="113.18" r="1.82" fill="#3C4510" fill-opacity=".6"/><circle cx="88.433" cy="100.807" r="1.82" fill="#3C4510" fill-opacity=".6"/><circle cx="88.433" cy="113.18" r="1.82" fill="#3C4510" fill-opacity=".6"/><circle cx="26.566" cy="100.807" r="1.82" fill="#3C4510" fill-opacity=".6"/><circle cx="26.566" cy="113.18" r="1.82" fill="#3C4510" fill-opacity=".6"/><circle cx="63.687" cy="100.807" r="1.82" fill="#3C4510" fill-opacity=".6"/><circle cx="63.687" cy="113.18" r="1.82" fill="#3C4510" fill-opacity=".6"/><circle cx="100.807" cy="100.807" r="1.82" fill="#3C4510" fill-opacity=".6"/><circle cx="100.807" cy="113.18" r="1.82" fill="#3C4510" fill-opacity=".6"/><circle cx="113.18" cy="100.807" r="1.82" fill="#3C4510" fill-opacity=".6"/><circle cx="113.18" cy="113.18" r="1.82" fill="#3C4510" fill-opacity=".6"/></svg>