<svg width="64" height="64" viewBox="0 0 25 25" fill="none" xmlns="http://www.w3.org/2000/svg"><g fill="#121923"><path d="m5.93 13.21.738-2.837h.063l.728 2.838H5.93zM8.172 16H9.66l-2.1-7H5.93L3.83 16h1.378l.446-1.712h2.081L8.172 16zM10.539 9v7h1.378v-2.222h1.115c1.509 0 2.47-.926 2.47-2.382C15.502 9.926 14.57 9 13.1 9H10.54zm1.378 1.13h.834c.902 0 1.353.417 1.353 1.257 0 .844-.45 1.256-1.353 1.256h-.834V10.13zM21.168 16v-1.184h-1.451v-4.632h1.45V9H16.89v1.184h1.45v4.632h-1.45V16h4.279z"/></g></svg>