<svg xmlns="http://www.w3.org/2000/svg" width="64" height="64" viewBox="0 0 512 512" xml:space="preserve"><path d="M499.161 364.63s-63.554 171.386-282.354 131.488c-3.443-.641-6.745-1.838-10.089-2.849-.782-.229-1.572-.479-2.354-.703a302.903 302.903 0 0 1-9.769-3.197c-.37-.129-.723-.25-1.098-.383a326.662 326.662 0 0 1-8.762-3.244c-.757-.295-1.51-.582-2.263-.89a273.273 273.273 0 0 1-9.277-3.859c-.565-.249-1.11-.499-1.684-.752a317.762 317.762 0 0 1-7.959-3.685c-.682-.346-1.368-.666-2.055-.99-.374-.187-.777-.374-1.16-.565-1.696-.848-3.352-1.729-5.023-2.604-1.289-.665-2.599-1.313-3.88-2a329.103 329.103 0 0 1-7.02-3.938c-.861-.491-1.73-.965-2.583-1.46a332.068 332.068 0 0 1-9.344-5.727c-.869-.557-1.729-1.147-2.586-1.722-2.004-1.297-4.009-2.595-5.972-3.95-.208-.142-.407-.291-.611-.437-.761-.516-1.484-1.044-2.241-1.593a266.52 266.52 0 0 1-6.15-4.408 512.55 512.55 0 0 1-2.932-2.229 321.13 321.13 0 0 1-5.481-4.284c-.902-.723-1.817-1.438-2.719-2.17a341.36 341.36 0 0 1-6.575-5.548c-.408-.357-.84-.707-1.256-1.081-.042-.017-.071-.05-.117-.088a271.49 271.49 0 0 1-7.236-6.591c-.719-.657-1.435-1.36-2.158-2.05a314.61 314.61 0 0 1-5.277-5.178c-.72-.707-1.431-1.422-2.121-2.138a323.508 323.508 0 0 1-6.616-6.97c-.079-.107-.158-.17-.253-.274-.038-.041-.092-.096-.129-.142a305.821 305.821 0 0 1-6.508-7.427 228.322 228.322 0 0 1-1.78-2.133 331.47 331.47 0 0 1-4.674-5.743 360.112 360.112 0 0 1-1.9-2.42 257.465 257.465 0 0 1-5.057-6.721c-.308-.424-.636-.84-.932-1.256a1.41 1.41 0 0 1-.158-.216 283.24 283.24 0 0 1-5.547-8.001c-.561-.824-1.089-1.672-1.63-2.521a240.738 240.738 0 0 1-3.826-5.988c-.648-1.031-1.264-2.066-1.888-3.103a243.51 243.51 0 0 1-3.298-5.655c-.611-1.073-1.214-2.121-1.805-3.223-.329-.582-.686-1.182-1.006-1.792-.562-1.016-1.069-2.075-1.618-3.111-.848-1.626-1.709-3.26-2.528-4.915C-6.655 275.1-12.294 190.5 32.95 125.471l35.314-44.789c-39.843 77.007-21.936 170.778 27.908 238.76 1.8 2.475 3.643 4.916 5.526 7.356.583.736 1.168 1.477 1.751 2.184a284.177 284.177 0 0 0 4.786 5.918c.583.686 1.152 1.359 1.747 2.066a252.343 252.343 0 0 0 6.646 7.564c.108.12.212.229.316.345a303.605 303.605 0 0 0 6.558 6.933c.69.698 1.393 1.389 2.096 2.088a206.2 206.2 0 0 0 5.344 5.235c.686.682 1.376 1.339 2.088 2.017a358.359 358.359 0 0 0 7.435 6.758c.262.229.532.44.773.652a336.406 336.406 0 0 0 7.074 5.96c.832.678 1.68 1.355 2.528 2.029a287.085 287.085 0 0 0 5.681 4.437c.911.699 1.846 1.41 2.791 2.108a342.403 342.403 0 0 0 6.288 4.55c.719.486 1.418 1.015 2.146 1.505a237.617 237.617 0 0 0 6.654 4.425c.84.558 1.672 1.14 2.52 1.681a337.537 337.537 0 0 0 9.357 5.73c.811.466 1.622.902 2.42 1.352a246.141 246.141 0 0 0 7.19 4.029c1.314.731 2.666 1.393 3.996 2.096 1.988 1.023 3.976 2.063 5.988 3.044.761.374 1.501.724 2.246 1.077a371.386 371.386 0 0 0 7.743 3.605c.616.267 1.214.545 1.834.811 3.032 1.327 6.096 2.6 9.186 3.817.794.316 1.589.62 2.387.937a295.645 295.645 0 0 0 8.508 3.156c.445.158.89.32 1.322.478a291.045 291.045 0 0 0 9.648 3.136c.827.258 1.655.508 2.503.757 3.318.981 6.616 2.042 10.018 2.812 89.773 20.431 184.517 2.083 237.895-67.46zM182.44 254.758c4.907 7.024 10.338 15.386 16.846 21.031 2.354 2.598 4.824 5.13 7.34 7.621.632.648 1.285 1.272 1.938 1.908a215.525 215.525 0 0 0 7.494 6.97c.108.079.204.188.308.263.029.033.054.041.075.074 2.845 2.487 5.781 4.887 8.758 7.244.662.508 1.318 1.036 1.988 1.552 2.99 2.291 6.039 4.545 9.166 6.69.096.066.17.134.266.2 1.376.956 2.782 1.846 4.175 2.761.674.433 1.31.898 1.983 1.306a185.394 185.394 0 0 0 6.795 4.167c.325.2.641.366.961.553a250.168 250.168 0 0 0 6.005 3.356c.698.391 1.414.74 2.129 1.114 1.389.724 2.786 1.468 4.2 2.171.212.1.433.199.637.287a199.91 199.91 0 0 0 8.762 4.079c.632.283 1.289.532 1.934.799a224.016 224.016 0 0 0 7.178 2.915c1.022.387 2.059.757 3.073 1.127 2.191.815 4.383 1.556 6.595 2.296 1.003.319 1.984.648 2.986.956 3.144.973 6.254 2.212 9.535 2.753C472.501 366.942 511.5 236.873 511.5 236.873c-35.16 50.633-103.243 74.791-175.897 55.936a209.508 209.508 0 0 1-9.56-2.77 96.802 96.802 0 0 1-2.883-.928 197.877 197.877 0 0 1-6.694-2.308c-1.011-.37-2.025-.74-3.02-1.123a228.945 228.945 0 0 1-7.198-2.902c-.653-.283-1.306-.533-1.942-.824a201.833 201.833 0 0 1-8.812-4.094c-1.493-.729-2.953-1.499-4.425-2.254l-2.549-1.312a213.673 213.673 0 0 1-5.594-3.154c-.437-.252-.894-.491-1.339-.755a228.56 228.56 0 0 1-6.77-4.134c-.687-.438-1.352-.915-2.038-1.366a239.846 239.846 0 0 1-4.392-2.902c-3.11-2.146-6.138-4.399-9.128-6.678-.69-.543-1.376-1.073-2.059-1.616-31.796-25.111-57-59.423-68.994-98.33-12.555-40.352-9.847-85.647 11.914-122.406l-26.735 37.738c-32.715 47.085-30.939 110.113-5.419 159.91 4.286 8.349 9.097 16.445 14.474 24.157zm178.06-58.252c1.393.52 2.782.981 4.191 1.458.616.189 1.231.401 1.851.584 1.988.626 3.963 1.352 6.018 1.738 93.284 18.023 118.58-47.869 125.317-57.566-22.165 31.91-59.405 39.57-105.111 28.481-3.605-.881-7.572-2.185-11.058-3.416a135.451 135.451 0 0 1-13.124-5.456 136.046 136.046 0 0 1-23.025-14.045c-40.891-31.029-66.291-90.221-39.61-138.425L291.51 29.76c-19.287 28.386-21.179 63.638-7.801 94.991 14.114 33.274 43.036 59.381 76.791 71.755z"/></svg>