<svg width="64" height="64" viewBox="0 0 32 32" xmlns="http://www.w3.org/2000/svg"><path d="M29.5 18.8a1.4 1.4 0 0 0-1.1-1 2.6 2.6 0 0 0-1 .1 8.2 8.2 0 0 1-1.4.2 27.1 27.1 0 0 0 3-6.8c.9-3.7.4-5.4-.2-6.2A8.2 8.2 0 0 0 22 2a11.8 11.8 0 0 0-3.4.5 12.9 12.9 0 0 0-2-.2 6.6 6.6 0 0 0-3.6.9 16 16 0 0 0-2.5-.7 7.7 7.7 0 0 0-5.8 1C3.1 4.7 2.3 6.8 2.4 9.8a36.4 36.4 0 0 0 1.4 6.5 22.6 22.6 0 0 0 1.6 3.9 4.8 4.8 0 0 0 2.4 2.5 2.4 2.4 0 0 0 2.4-.5 2 2 0 0 0 .5.5 3.3 3.3 0 0 0 1 .4 5 5 0 0 0 3.2-.2 35.3 35.3 0 0 1 0 1.1 11.6 11.6 0 0 0 .5 3.3v.2a4 4 0 0 0 1 1.7 3 3 0 0 0 2.1.8 4.7 4.7 0 0 0 1-.1 4.6 4.6 0 0 0 3.1-1.8c.8-1.2 1.2-2.9 1.3-5.6V22h.2a7.6 7.6 0 0 0 3.2-.5c.7-.3 2.7-1.4 2.2-2.8"/><path d="M27.7 19c-3.2.7-3.4-.4-3.4-.4 3.3-5 4.7-11.2 3.5-12.7-3.2-4.2-9-2.3-9-2.2a11.3 11.3 0 0 0-2.2-.2 5.2 5.2 0 0 0-3.3 1S3 .3 3.6 9.7c.1 2 2.9 15.2 6.2 11.2l2.4-2.6a3 3 0 0 0 2 .5 2.2 2.2 0 0 0 0 .5c-.8 1-.5 1.1-2.2 1.5-1.8.3-.8 1 0 1.1a3.5 3.5 0 0 0 3.8-1.3v.2c.3.3.5 1.8.5 3.1a8.5 8.5 0 0 0 .2 3c.3.7.5 2.3 2.8 1.8a3.3 3.3 0 0 0 3-3.1c0-1.3.3-1 .3-2.2l.2-.5c.2-1.7 0-2.2 1.1-2h.3a6.4 6.4 0 0 0 2.6-.4c1.4-.6 2.3-1.7.9-1.4" fill="#336791"/><path d="M13.9 10.6a1 1 0 0 0-.7.1.2.2 0 0 0 0 .2.5.5 0 0 0 0 .3.9.9 0 0 0 .6.4.7.7 0 0 0 .8-.5c0-.3-.4-.4-.7-.5m9.4 0c0-.2-.3-.2-.7-.2s-.6.2-.6.4a.7.7 0 0 0 .6.4.6.6 0 0 0 .1 0 .8.8 0 0 0 .5-.2.5.5 0 0 0 .1-.4" fill="#fff"/><path d="M28.7 19c0-.4-.5-.5-1.1-.4-2 .4-2.6.2-2.8 0A26.3 26.3 0 0 0 28 11a14.4 14.4 0 0 0 .5-3.2 3.5 3.5 0 0 0-.5-2.2 7.5 7.5 0 0 0-6-2.9 10.4 10.4 0 0 0-3.5.6 8.7 8.7 0 0 0-2-.3 5.7 5.7 0 0 0-3.4 1 15 15 0 0 0-2.7-.7 7 7 0 0 0-5.2.8C3.8 5 3 7 3.2 9.7a35.5 35.5 0 0 0 1.4 6.4c1 3.5 2.2 5.4 3.4 5.9a1.5 1.5 0 0 0 .5 0 2 2 0 0 0 1.6-.8l2.1-2.5a3.5 3.5 0 0 0 1.6.4l-.3.4c-.4.5-.4.6-1.6.8-.4.1-1.3.3-1.3 1 0 .6 1 1 1.2 1a5.1 5.1 0 0 0 1.2.1 3.6 3.6 0 0 0 2.5-1 23.7 23.7 0 0 0 .4 5.8 2.9 2.9 0 0 0 2.7 2 4.4 4.4 0 0 0 1 0 3.5 3.5 0 0 0 3.1-3.2l.6-4.8a3.9 3.9 0 0 0 1.1.1 6.6 6.6 0 0 0 2.6-.5c.7-.3 2-1.1 1.7-1.8zm-4.6-9a8 8 0 0 1-.2 1.1 10.2 10.2 0 0 0-.1 1.3 9.9 9.9 0 0 0 0 1.5 5.2 5.2 0 0 1-.1 3 3.9 3.9 0 0 1-.2-.5L23 16c-.7-1.3-2.3-4.1-1.5-5.3.3-.3.9-.7 2.5-.5zm-2-6.6A6.6 6.6 0 0 1 27.5 6c1 1.2 0 6.9-3.2 11.8v-.2h-.1a5.5 5.5 0 0 0 .5-3.8 9.1 9.1 0 0 1-.1-1.4 9.6 9.6 0 0 1 .1-1.2 7.6 7.6 0 0 0 .1-1.5.6.6 0 0 0 0-.2A8.4 8.4 0 0 0 23 6a8.6 8.6 0 0 0-3-2.3 10.2 10.2 0 0 1 2.3-.2zM9.6 20.7c-.6.7-1 .6-1.2.5-1-.3-2-2.3-3-5.4A35.2 35.2 0 0 1 4 9.7c-.1-2.4.4-4.1 1.7-5 2-1.5 5.5-.6 6.8-.1-2.3 2.3-2.2 6.1-2.2 6.4v.4a16 16 0 0 1 0 3.2 4 4 0 0 0 1 3.4l.3.3-2.1 2.4zm2.4-3.2a3.3 3.3 0 0 1-.9-2.8 16.7 16.7 0 0 0 0-3.4v-.2a4.3 4.3 0 0 1 3-.9 1.2 1.2 0 0 1 1 1c.6 3 0 4.3-.4 5.3l-.3.6v.1a10.2 10.2 0 0 0-.4 1.1 2.8 2.8 0 0 1-2-.8zm0 4a1.7 1.7 0 0 1-.4-.2 2.6 2.6 0 0 1 .5-.2c1.4-.3 1.7-.5 2.1-1.1l.4-.5c.3-.3.4-.2.6-.1a.8.8 0 0 1 .4.5.6.6 0 0 1 0 .5 3.1 3.1 0 0 1-3.5 1.1zm7.5 6.9a2.1 2.1 0 0 1-2.7-1.5 31.1 31.1 0 0 1-.3-6.9.4.4 0 0 0 0-.1 1.6 1.6 0 0 0-.1-.2 1.6 1.6 0 0 0-.9-1 1.2 1.2 0 0 0-.8-.2 9.6 9.6 0 0 1 .4-1v-.1l.3-.6c.4-1 1-2.5.4-5.7a2 2 0 0 0-2.5-1.7 5.7 5.7 0 0 0-1.9.6l-.2.1a8.2 8.2 0 0 1 2-5 4.7 4.7 0 0 1 3.5-1.3 7.6 7.6 0 0 1 5.8 2.8A8.8 8.8 0 0 1 24 9.3c-1.5-.1-2.5.1-3 .9-1.1 1.5.6 4.6 1.4 6l.3.6a5.4 5.4 0 0 0 .9 1.4l.2.3c-.4.1-1.2.4-1.2 1.9l-.6 5.4c-.3 1.6-1 2.2-2.6 2.6zm7.2-8.3a5.7 5.7 0 0 1-1.9.4 2.4 2.4 0 0 1-1.3-.2c0-.9.3-1 .7-1l.1-.1a1.4 1.4 0 0 0 .2 0c.6.5 1.7.5 3.3.2a4.3 4.3 0 0 1-1 .7z" fill="#fff"/></svg>