<svg width="64" height="64" viewBox="0 0 32 32" xmlns="http://www.w3.org/2000/svg"><path d="M26.1 17.6a5.8 5.8 0 0 0-2.5.6 5.3 5.3 0 0 1-.6-1.4 3.5 3.5 0 0 1 0-1 9.8 9.8 0 0 1 .3-1.2c0-.1 0-.3-.6-.3s-1 0-1.1.2a6.2 6.2 0 0 0-.3.8 19.7 19.7 0 0 1-1.7 3.3 3.2 3.2 0 0 1-.4-2 9.8 9.8 0 0 1 .3-1.2s0-.3-.6-.3-1 0-1.1.2l-.3.9-1.8 4.1-.4 1-.2.3-.2.3a1.7 1.7 0 0 1 0-.9l.7-2.7s0-.4-.3-.5a.5.5 0 0 0-.6.1s.4-1.8-1-1.8a3.9 3.9 0 0 0-2.4 1.7l-1.9 1-.9.5C6.8 17.6 4 16.4 4 14.2c0-.8.3-3 5.6-5.6 4.3-2.1 7.7-1.5 8.3-.2.8 1.8-1.9 5.3-6.3 5.8a3.4 3.4 0 0 1-2.8-.7c-.2-.3-.3-.3-.4-.2-.1 0 0 .3 0 .4A2.6 2.6 0 0 0 10 15a8.6 8.6 0 0 0 5.3-.6c2.7-1 4.8-3.9 4.1-6.3-.6-2.5-4.7-3.3-8.5-2A19.5 19.5 0 0 0 4.4 10c-2.2 2-2.5 3.7-2.4 4.4.5 2.6 4 4.3 5.5 5.5l-.2.1c-.7.4-3.4 1.8-4 3.3-.9 1.7 0 2.9.6 3a4.4 4.4 0 0 0 4.7-1.8A4.7 4.7 0 0 0 9 20l.6-.4 1-.5a6.7 6.7 0 0 0-.3 1.8 3.9 3.9 0 0 0 .8 2.7 1 1 0 0 0 .7.2c.6 0 .8-.5 1.1-1l.7-1.6s-.4 2.3.7 2.3c.5 0 .9-.6 1-.8l.2-.2 1-2 1.4-3.1a8.9 8.9 0 0 0 .3 1 10.6 10.6 0 0 0 .6 1.4l-.3.4-.4.5a16.3 16.3 0 0 0-1.3 1.7.4.4 0 0 0 0 .6 1.1 1.1 0 0 0 .8 0 3.1 3.1 0 0 0 1-.2 3.5 3.5 0 0 0 .9-.4 2 2 0 0 0 .8-1.8 3.5 3.5 0 0 0-.3-1.2l.2-.2a23.4 23.4 0 0 0 1.5-2.7 8.9 8.9 0 0 0 .3 1.2 7.6 7.6 0 0 0 .5 1 4.9 4.9 0 0 0-1.5 2c-.4 1-.1 1.4.4 1.4a1.4 1.4 0 0 0 .7-.1 3.4 3.4 0 0 0 1-.5 2.1 2.1 0 0 0 1-1.7 3.3 3.3 0 0 0-.2-1 5.4 5.4 0 0 1 2.7-.4c2.4.3 2.9 1.8 2.8 2.5a1.6 1.6 0 0 1-.8 1l-.2.3h.3a1.9 1.9 0 0 0 1.3-1.6c0-1.5-1.4-3.1-3.9-3.1zM7.3 23.9c-.8.9-1.9 1.2-2.4 1-.5-.4-.3-1.7.7-2.6a12.9 12.9 0 0 1 1.9-1.4l.5-.3.2-.1a3.5 3.5 0 0 1-.9 3.4zm6-4c-.4.7-1 2.4-1.3 2.3-.3 0-.5-1.4 0-2.7a6.2 6.2 0 0 1 .9-1.7c.4-.5.9-.7 1-.5a9 9 0 0 1-.7 2.6zm4.8 2.3h-.3l.9-1 .5-.6v.1c0 .8-.8 1.3-1.1 1.5zm3.7-.8.2-1a3.4 3.4 0 0 1 .9-1 1.4 1.4 0 0 1 0 .5 1.5 1.5 0 0 1-1 1.5z" fill="#cd6799"/></svg>